/* XPM */
static char * 0_xpm[] = {
"16 16 88 1",
" 	c #D0AA86",
".	c #CFA887",
"+	c #C7A07F",
"@	c #C09575",
"#	c #CA9F7F",
"$	c #D3A886",
"%	c #CCA380",
"&	c #D5AD8A",
"*	c #D4AC89",
"=	c #C89D7D",
"-	c #C79C7C",
";	c #BD9773",
">	c #CAA382",
",	c #C9A080",
"'	c #D4A98A",
")	c #CCA181",
"!	c #CAA27F",
"~	c #CEA484",
"{	c #D2A784",
"]	c #CA9F7D",
"^	c #CEA482",
"/	c #CBA180",
"(	c #CBA281",
"_	c #C99F7F",
":	c #CEA584",
"<	c #CCA280",
"[	c #D7B18D",
"}	c #D3AB8A",
"|	c #CCA584",
"1	c #C99E7D",
"2	c #C99F7E",
"3	c #CDA381",
"4	c #D4AA87",
"5	c #D3A885",
"6	c #C99F7D",
"7	c #CDA582",
"8	c #CDA684",
"9	c #CCA583",
"0	c #CEA380",
"a	c #D0A684",
"b	c #D3AA87",
"c	c #C69B7B",
"d	c #C49A79",
"e	c #D0A784",
"f	c #CDA282",
"g	c #D0A886",
"h	c #D3AB88",
"i	c #CAA27E",
"j	c #D1A787",
"k	c #CCA382",
"l	c #C29676",
"m	c #CDA17F",
"n	c #B7916D",
"o	c #C99E7E",
"p	c #BF9273",
"q	c #D1A684",
"r	c #C49C79",
"s	c #D5B08C",
"t	c #CBA584",
"u	c #C8A27F",
"v	c #C69D7D",
"w	c #BF9472",
"x	c #CDA482",
"y	c #CA9F7E",
"z	c #CCA282",
"A	c #D2A885",
"B	c #CBA17F",
"C	c #D5AF8B",
"D	c #D3AA89",
"E	c #D3AA88",
"F	c #C79D7C",
"G	c #C69D7C",
"H	c #CDA281",
"I	c #C59C7A",
"J	c #CBA080",
"K	c #C49A78",
"L	c #CCA17F",
"M	c #CFA583",
"N	c #D1A885",
"O	c #CCA281",
"P	c #C09272",
"Q	c #CBA181",
"R	c #C39977",
"S	c #CDA481",
"T	c #D2A988",
"U	c #CFA684",
"V	c #D1A785",
"W	c #C89A79",
" .+@# .+@#$%&*=-",
";>,@-;>,@-'&&&))",
"!&*=-!&*=-~{]^/(",
"&&&))&&*)_:</[}|",
"{]^/({]123456789",
"03[}|ab=cd^ef=gh",
"{i .+&&fjkl .+@#",
"mn;>,]^k}op;>,@-",
"qr!&*^stuvw!&*=-",
"x{&& .+@# .&&&))",
".+@y;>,@-;>q]^/z",
">,@c!&*=-!&ABCD8",
"&*=c&&&))&&EFGHI",
"&&fj{]^/({]JjklK",
"]^k}LB[}|MNO}opP",
"^stuQRSTUVstuvwW"};
