/* XPM */
static char * 1_xpm[] = {
"16 16 80 1",
" 	c None",
".	c #D9BD8F",
"+	c #FFFBEB",
"@	c #FAE5BD",
"#	c #F8E3BB",
"$	c #FAE4BC",
"%	c #F9E4BC",
"&	c #F9E4BB",
"*	c #F7E1B9",
"=	c #F7E2BA",
"-	c #F4DEB5",
";	c #F8E3BA",
">	c #F7E1B8",
",	c #F7E0B8",
"'	c #F5E0B6",
")	c #F0D8AF",
"!	c #F1DAB1",
"~	c #F3DDB3",
"{	c #F5E0B7",
"]	c #F0DAB0",
"^	c #F1DBB2",
"/	c #EDD7AD",
"(	c #EDD5AB",
"_	c #ECD3AA",
":	c #DABF91",
"<	c #EDD6AC",
"[	c #F4DEB6",
"}	c #F3DDB4",
"|	c #F2DCB3",
"1	c #F2DBB1",
"2	c #ECD5AA",
"3	c #E8CFA4",
"4	c #ECD5AB",
"5	c #F1DBB1",
"6	c #F1DAB0",
"7	c #FFFFFF",
"8	c #000000",
"9	c #EAD3A8",
"0	c #E6CDA2",
"a	c #FBE6BE",
"b	c #F5DFB6",
"c	c #EFD7AD",
"d	c #EBD3A9",
"e	c #E7CEA3",
"f	c #DCC093",
"g	c #E2C89C",
"h	c #F0D8B0",
"i	c #EED7AD",
"j	c #E0C599",
"k	c #DDC295",
"l	c #F5DFB5",
"m	c #ECD4AA",
"n	c #DCC194",
"o	c #EBD3A8",
"p	c #E2C99C",
"q	c #F9E3BB",
"r	c #F8E2BA",
"s	c #F2DBB2",
"t	c #EAD2A8",
"u	c #DBBF92",
"v	c #E8CEA4",
"w	c #EDD4AB",
"x	c #E3C99E",
"y	c #F0D9AF",
"z	c #DDC396",
"A	c #DDC294",
"B	c #E9CFA5",
"C	c #E9D1A7",
"D	c #EAD3A9",
"E	c #E2C89D",
"F	c #EDD5AC",
"G	c #DEC497",
"H	c #E7CFA4",
"I	c #E4CBA0",
"J	c #DDC296",
"K	c #DEC396",
"L	c #EFD8AE",
"M	c #EAD2A7",
"N	c #E7CD9F",
"O	c #E5CA9C",
" .............. ",
".++++++++++++++.",
".+@#@$%&@%%@%*#.",
".+=-*#;*>;;,')!.",
".%*-'-~{]!!^/(_.",
":<![[}|1!|2<<33.",
":45678}}<}78!9!.",
".0'a88;bc}88def.",
".gh<-}!<}a}}ib4.",
".jkl}-8}}8}}imn.",
".opmiqr88-!stuv.",
".wx0iyidb}9tzAB.",
".CDoEF<5GxtHdIj.",
".JKiLxM<i.2H3GN.",
".NNNNONNNNNNNNN.",
" .............. "};
